HIERARCHY
ROOT Hips
{
 OFFSET 0.000000 0.000000 0.000000
 CHANNELS 6 Xposition Yposition Zposition Yrotation Xrotation Zrotation
 JOINT Chest
 {
  OFFSET 0.000000 9.585900 0.002600
  CHANNELS 3 Yrotation Xrotation Zrotation
  JOINT Chest2
  {
   OFFSET 0.000000 9.601200 -0.005300
   CHANNELS 3 Yrotation Xrotation Zrotation
   JOINT Chest3
   {
    OFFSET 0.000000 9.561800 0.000000
    CHANNELS 3 Yrotation Xrotation Zrotation
    JOINT Chest4
    {
     OFFSET 0.000000 9.552100 0.000000
     CHANNELS 3 Yrotation Xrotation Zrotation
     JOINT Neck
     {
      OFFSET 0.000000 14.453000 0.000000
      CHANNELS 3 Yrotation Xrotation Zrotation
      JOINT Head
      {
       OFFSET 0.000000 8.936500 -0.011300
       CHANNELS 3 Yrotation Xrotation Zrotation
       End Site
       {
        OFFSET 0.000000 17.073600 -0.006000
       }
      }
     }
     JOINT RightCollar
     {
      OFFSET -2.921100 9.558500 0.000000
      CHANNELS 3 Yrotation Xrotation Zrotation
      JOINT RightShoulder
      {
       OFFSET -13.519700 0.000000 0.000000
       CHANNELS 3 Yrotation Xrotation Zrotation
       JOINT RightElbow
       {
        OFFSET 0.000000 -29.696600 0.000000
        CHANNELS 3 Yrotation Xrotation Zrotation
        JOINT RightWrist
        {
         OFFSET 0.000000 -24.004700 0.000000
         CHANNELS 3 Yrotation Xrotation Zrotation
         End Site
         {
          OFFSET 0.000000 -17.728500 0.000000
         }
        }
       }
      }
     }
     JOINT LeftCollar
     {
      OFFSET 2.921100 9.558500 0.000000
      CHANNELS 3 Yrotation Xrotation Zrotation
      JOINT LeftShoulder
      {
       OFFSET 13.519700 0.000000 0.000000
       CHANNELS 3 Yrotation Xrotation Zrotation
       JOINT LeftElbow
       {
        OFFSET 0.000000 -29.696600 0.000000
        CHANNELS 3 Yrotation Xrotation Zrotation
        JOINT LeftWrist
        {
         OFFSET 0.000000 -24.004700 0.000000
         CHANNELS 3 Yrotation Xrotation Zrotation
         End Site
         {
          OFFSET 0.000000 -17.728500 0.000000
         }
        }
       }
      }
     }
    }
   }
  }
 }
 JOINT RightHip
 {
  OFFSET -7.771700 -0.012900 -0.001300
  CHANNELS 3 Yrotation Xrotation Zrotation
  JOINT RightKnee
  {
   OFFSET 0.000000 -40.869800 0.001200
   CHANNELS 3 Yrotation Xrotation Zrotation
   JOINT RightAnkle
   {
    OFFSET 0.000000 -39.717900 0.002100
    CHANNELS 3 Yrotation Xrotation Zrotation
    JOINT RightToe
    {
     OFFSET 0.000000 -4.965400 11.033500
     CHANNELS 3 Yrotation Xrotation Zrotation
     End Site
     {
      OFFSET 0.000000 -1.423100 5.872300
     }
    }
   }
  }
 }
 JOINT LeftHip
 {
  OFFSET 7.771700 -0.012900 -0.001300
  CHANNELS 3 Yrotation Xrotation Zrotation
  JOINT LeftKnee
  {
   OFFSET 0.000000 -40.869800 0.001200
   CHANNELS 3 Yrotation Xrotation Zrotation
   JOINT LeftAnkle
   {
    OFFSET 0.000000 -39.717900 0.002100
    CHANNELS 3 Yrotation Xrotation Zrotation
    JOINT LeftToe
    {
     OFFSET 0.000000 -4.965400 11.033500
     CHANNELS 3 Yrotation Xrotation Zrotation
     End Site
     {
      OFFSET 0.000000 -1.423100 5.872300
     }
    }
   }
  }
 }
}
MOTION
Frames: 8
Frame Time: 0.008333
0.000000 85.388000 0.000000 0.000000 -5.767877 0.000000 0.000000 11.653817 0.000000 0.000000 -5.885947 0.000000 0.000000 -0.000000 0.000000 0.000000 -0.000000 0.000000 0.000000 12.528835 0.000000 0.000000 0.711642 0.000000 0.000000 -0.000000 0.000000 0.000000 0.000000 -90.000000 0.000000 -2.309062 0.000000 0.000000 2.309062 0.000000 0.000000 -0.000000 0.000000 0.000000 -0.000000 90.000000 0.000000 -2.309062 0.000000 0.000000 2.309062 0.000000 0.000000 8.520406 0.000000 0.000000 1.905762 0.000000 -0.000000 -4.658285 0.000000 0.000000 -0.000000 0.000000 0.000000 8.520406 0.000000 0.000000 1.905762 0.000000 -0.000000 -4.658285 0.000000 0.000000 -0.000000 0.000000
-246.312808 56.603185 149.147980 176.005221 -50.436740 -0.461288 0.564389 23.253954 2.627373 -0.064250 3.394000 0.431580 -0.091244 5.478811 0.695582 -0.016475 19.459132 2.505440 -3.465281 24.842962 -1.203774 -5.921052 10.347896 -1.335147 4.779939 1.220929 -1.285099 32.619808 -36.011796 -25.167868 174.813467 -53.480355 -151.245727 14.607123 -12.908200 -56.659044 -11.581582 -3.336084 -4.463476 -11.901142 -33.042064 2.186266 156.345037 -61.427619 175.202898 -9.672601 -11.409896 18.432981 7.353185 -26.763662 -1.041260 -9.495045 62.136832 -12.964201 3.066734 34.867061 1.536281 -1.527553 -18.535897 9.328239 -10.395881 -24.129695 -0.291338 31.697036 63.069345 30.118663 -12.131403 13.014483 -5.053637 0.424328 -1.537033 -1.204222
-246.313723 56.601862 149.149112 176.005941 -50.428541 -0.459811 0.555162 23.260108 2.628560 -0.065567 3.397916 0.432896 -0.088161 5.471485 0.692169 -0.026212 19.481012 2.516766 -3.480526 24.733705 -1.286393 -5.928769 10.142198 -1.475245 4.757465 1.204230 -1.274794 32.638232 -36.015958 -25.164146 174.783384 -53.447952 -151.222251 14.649399 -12.896464 -56.694526 -11.589414 -3.358907 -4.456987 -11.890199 -33.056912 2.186037 156.100239 -61.471209 175.517243 -9.586742 -11.827278 19.341676 7.369905 -26.766200 -1.060370 -9.495087 62.136237 -12.943861 3.062253 34.827090 1.526151 -1.526743 -18.496590 9.331259 -10.398903 -24.144912 -0.297699 31.733659 63.066538 30.159205 -12.129910 13.031325 -5.046358 0.433212 -2.344766 -1.709753
-246.313670 56.601243 149.149776 176.009840 -50.424867 -0.467362 0.544331 23.273950 2.637207 -0.062134 3.396077 0.431116 -0.088400 5.468713 0.691032 -0.028307 19.486821 2.519944 -3.487679 24.677158 -1.328930 -5.946679 9.888240 -1.647007 4.759501 1.188733 -1.282688 32.607654 -36.028164 -25.121306 174.764773 -53.434898 -151.210004 14.728753 -12.927365 -56.775930 -11.608007 -3.365053 -4.443136 -11.976783 -33.044349 2.312467 155.834672 -61.471860 175.978098 -9.516279 -12.256237 20.306829 7.383300 -26.764337 -1.073295 -9.489008 62.138276 -12.913730 3.052618 34.782058 1.511508 -1.525800 -18.454165 9.335802 -10.404429 -24.148780 -0.294131 31.749503 63.063324 30.184510 -12.140427 13.031448 -5.058231 0.457957 -2.979313 -2.104836
-246.313687 56.601122 149.150042 176.014913 -50.423667 -0.476077 0.532244 23.287895 2.645670 -0.074813 3.408472 0.438567 -0.075384 5.470370 0.686048 -0.059853 19.517803 2.542593 -3.502317 24.531005 -1.447090 -5.936591 9.687160 -1.800150 4.774034 1.140926 -1.313584 32.589698 -36.039129 -25.072476 174.727059 -53.412855 -151.155989 14.825041 -12.987874 -56.886500 -11.614888 -3.401209 -4.438852 -12.012059 -33.056876 2.388703 155.584658 -61.493531 176.430894 -9.467978 -12.684314 21.330530 7.393960 -26.757564 -1.085471 -9.480978 62.135350 -12.880457 3.037152 34.740715 1.488234 -1.517943 -18.399105 9.342312 -10.408015 -24.153566 -0.291284 31.778366 63.062934 30.217452 -12.139553 13.039806 -5.053676 0.466316 -3.494855 -2.426753
-246.313691 56.601619 149.149834 176.024809 -50.425176 -0.488967 0.486357 23.316582 2.656574 -0.085450 3.423238 0.444643 -0.109189 5.513939 0.707517 -0.076390 19.509252 2.531076 -3.483426 24.407618 -1.564947 -5.936524 9.452701 -1.984268 4.836120 1.081300 -1.372347 32.611275 -36.032403 -25.090646 174.585398 -53.327367 -151.109335 14.873128 -13.065270 -57.010256 -11.558964 -3.471685 -4.480038 -12.070574 -33.052476 2.458784 155.382860 -61.539911 176.851308 -9.433757 -13.104654 22.412294 7.392284 -26.752448 -1.088265 -9.475359 62.137772 -12.863936 3.026533 34.708760 1.474932 -1.511116 -18.361496 9.346349 -10.411741 -24.156851 -0.288771 31.800875 63.065687 30.251818 -12.149870 13.048754 -5.061033 0.483619 -3.912395 -2.680964
-246.313557 56.602434 149.149418 176.030055 -50.426853 -0.499408 0.416315 23.355668 2.670608 -0.083973 3.426291 0.442327 -0.082841 5.501768 0.690143 -0.153071 19.555034 2.565078 -3.494163 24.269703 -1.697611 -5.895094 9.233183 -2.195752 4.920284 1.025317 -1.444511 32.614505 -36.037501 -25.078802 174.478727 -53.273007 -151.017814 15.022416 -13.183792 -57.257012 -11.476202 -3.541742 -4.535510 -12.141407 -33.049385 2.525906 155.236290 -61.603848 177.235253 -9.393909 -13.520303 23.530056 7.392216 -26.747085 -1.088676 -9.465789 62.137501 -12.846593 3.018548 34.684531 1.465943 -1.505640 -18.327453 9.349894 -10.415056 -24.158516 -0.284312 31.822097 63.070684 30.282226 -12.154448 13.050361 -5.064848 0.496112 -4.243606 -2.886041
-246.313292 56.603543 149.148815 176.039773 -50.428712 -0.514454 0.347915 23.389712 2.684142 -0.075600 3.425230 0.437153 -0.133723 5.540072 0.715081 -0.189094 19.561533 2.557634 -3.507965 24.129911 -1.831220 -5.844667 9.002899 -2.422952 5.011739 0.975696 -1.501990 32.648072 -36.037114 -25.103311 174.367077 -53.215340 -150.925833 15.222131 -13.342310 -57.594090 -11.375665 -3.617388 -4.602669 -12.228117 -33.047194 2.591701 155.113383 -61.669503 177.597232 -9.342978 -13.947677 24.654972 7.404387 -26.733051 -1.091755 -9.455453 62.125229 -12.815710 2.992194 34.657672 1.441161 -1.493663 -18.284598 9.362217 -10.421662 -24.156429 -0.277759 31.833148 63.070344 30.297248 -12.150490 13.055615 -5.059189 0.501372 -4.508259 -3.054244
